<?xml version="1.0" encoding="utf-8"?>
<!-- Generator: Adobe Illustrator 24.0.1, SVG Export Plug-In . SVG Version: 6.00 Build 0)  -->
<svg version="1.1" id="Layer_1" xmlns="http://www.w3.org/2000/svg" xmlns:xlink="http://www.w3.org/1999/xlink" x="0px" y="0px"
	 width="470px" height="282px" viewBox="0 0 470 282" style="enable-background:new 0 0 470 282;" xml:space="preserve">
<style type="text/css">
	.st0{fill:#007CC2;}
	.st1{fill:#FFFFFF;stroke:#E01A22;stroke-width:14;stroke-linecap:round;stroke-miterlimit:10;}
	.st2{fill:none;stroke:#E01A22;stroke-width:14;stroke-linecap:round;stroke-miterlimit:10;}
	.st3{fill:#A4DBF8;}
	.st4{fill:#4A4A49;}
	.st5{fill:#E01A22;}
	.st6{fill:#FFFFFF;}
	.st7{fill:#D1D3D4;}
	.st8{fill:none;stroke:#E01A22;stroke-width:10;stroke-linecap:round;stroke-linejoin:round;stroke-miterlimit:10;}
	.st9{fill:none;stroke:#E01A22;stroke-width:8;stroke-linecap:round;stroke-linejoin:round;stroke-miterlimit:10;}
</style>
<g>
	<polygon class="st3" points="337.8,146.6 282,146.6 282,109.3 316.4,109.3 	"/>
	<path class="st4" d="M212.2,164.7c-11.3,0-20.5,8.7-20.5,19.4c0,10.7,9.2,19.4,20.5,19.4c11.3,0,20.5-8.7,20.5-19.4
		C232.8,173.4,223.6,164.7,212.2,164.7z M212.2,194.5c-6,0-11-4.6-11-10.4c0-5.7,4.9-10.4,11-10.4c6,0,11,4.6,11,10.4
		C223.2,189.8,218.3,194.5,212.2,194.5z"/>
	<path class="st4" d="M308.1,164.7c-11.3,0-20.5,8.7-20.5,19.4c0,10.7,9.2,19.4,20.5,19.4c11.3,0,20.5-8.7,20.5-19.4
		C328.7,173.4,319.5,164.7,308.1,164.7z M308.1,194.5c-6,0-11-4.6-11-10.4c0-5.7,4.9-10.4,11-10.4c6,0,11,4.6,11,10.4
		C319.1,189.8,314.2,194.5,308.1,194.5z"/>
	<path class="st5" d="M163.2,78.5l0,97h25.4c3.7-9,12.8-15.3,23.6-15.3c10.8,0,19.9,6.4,23.6,15.3h37.3l0-97L163.2,78.5z"/>
	<path class="st6" d="M343.4,139.9l-19.2-28.8c-3.1-4.4-8.1-7.1-13.5-7.1H285c-3.8,0-6.9,3.1-6.9,6.9l0,64.6h6.4
		c3.7-9,12.8-15.3,23.6-15.3s19.9,6.4,23.6,15.3c0.6,1.5,1.1,3.1,1.4,4.8h4.1c3.9,0,7.1-3.2,7.1-6.9c0-0.7,0-29.5,0-29.5
		C344.4,142.5,344.2,141.1,343.4,139.9z M287.8,142.9c-0.8,0-1.4-0.6-1.4-1.4l0-27.8c0-0.8,0.6-1.4,1.4-1.4h22.9
		c2.7,0,5.2,1.3,6.7,3.5l15.6,24.6c0.3,0.5,0.4,1.2,0.1,1.7c-0.3,0.5-0.8,0.9-1.5,0.9H287.8z"/>
	<path class="st4" d="M294.7,151.9h-6.1c-1.2,0-2.2-0.9-2.2-2.1c0-1.1,1-2.1,2.2-2.1h6.1c1.2,0,2.2,0.9,2.2,2.1
		C296.9,151,295.9,151.9,294.7,151.9z"/>
	<g>
		<path class="st5" d="M169.6,94.9h-27c-2,0-3.6-1.6-3.6-3.6c0-2,1.6-3.6,3.6-3.6h27c2,0,3.6,1.6,3.6,3.6
			C173.1,93.3,171.5,94.9,169.6,94.9z"/>
	</g>
	<g>
		<path class="st5" d="M169.6,109.9h-14.1c-2,0-3.6-1.6-3.6-3.6s1.6-3.6,3.6-3.6h14.1c2,0,3.6,1.6,3.6,3.6S171.5,109.9,169.6,109.9z
			"/>
	</g>
	<g>
		<path class="st4" d="M165.4,102.4h-14.1c-2,0-3.6-1.6-3.6-3.6c0-2,1.6-3.6,3.6-3.6h14.1c2,0,3.6,1.6,3.6,3.6
			C169,100.8,167.4,102.4,165.4,102.4z"/>
	</g>
	<g>
		<path class="st4" d="M165.4,117.3h-14.1c-2,0-3.6-1.6-3.6-3.6c0-2,1.6-3.6,3.6-3.6h14.1c2,0,3.6,1.6,3.6,3.6
			C169,115.7,167.4,117.3,165.4,117.3z"/>
	</g>
	<g>
		<path class="st5" d="M129.2,94.9c-0.9,0-1.9-0.4-2.5-1.1c-0.7-0.7-1.1-1.6-1.1-2.5c0-0.9,0.4-1.9,1-2.5c1.3-1.3,3.7-1.3,5.1,0
			c0.7,0.7,1.1,1.6,1.1,2.5c0,0.9-0.4,1.9-1.1,2.5C131.1,94.6,130.2,94.9,129.2,94.9z"/>
	</g>
	<g>
		<path class="st5" d="M142.6,109.7c-0.9,0-1.9-0.4-2.5-1c-0.7-0.7-1.1-1.6-1.1-2.5c0-0.9,0.4-1.9,1.1-2.5c1.3-1.3,3.7-1.3,5.1,0
			c0.7,0.7,1.1,1.6,1.1,2.5c0,0.9-0.4,1.9-1.1,2.5C144.4,109.4,143.5,109.7,142.6,109.7z"/>
	</g>
	<path class="st7" d="M212.2,189.7c-3.3,0-5.9-2.5-5.9-5.6c0-3.1,2.6-5.6,5.9-5.6c3.3,0,5.9,2.5,5.9,5.6
		C218.1,187.2,215.5,189.7,212.2,189.7z"/>
	<path class="st7" d="M308.1,189.7c-3.3,0-5.9-2.5-5.9-5.6c0-3.1,2.6-5.6,5.9-5.6c3.3,0,5.9,2.5,5.9,5.6
		C314,187.2,311.4,189.7,308.1,189.7z"/>
	<g>
		<path class="st6" d="M193,117.9c-1.3-5-5.8-8.7-11.3-8.7c-6.4,0-11.7,5.2-11.7,11.5s5.2,11.5,11.7,11.5c5.5,0,10-3.7,11.3-8.7
			h-4.9c-1.1,2.4-3.5,4.1-6.4,4.1c-3.9,0-7-3.1-7-6.9c0-3.8,3.1-6.9,7-6.9c2.8,0,5.3,1.7,6.4,4.1H193z"/>
		<path class="st6" d="M217.3,120.7c0-6.4-5.2-11.5-11.7-11.5c-6.4,0-11.7,5.2-11.7,11.5s5.2,11.5,11.7,11.5
			C212.1,132.2,217.3,127.1,217.3,120.7 M212.7,120.7c0,3.8-3.1,6.9-7,6.9c-3.9,0-7-3.1-7-6.9c0-3.8,3.1-6.9,7-6.9
			C209.5,113.8,212.7,116.9,212.7,120.7"/>
		<rect x="218.9" y="102.3" class="st6" width="5.1" height="29.4"/>
		<path class="st6" d="M247.6,121.7c0-0.4,0-0.8,0-1.2c0-8.5-6.5-11.4-11.1-11.4h0c-4.5,0-11.1,2.9-11.1,11.4
			c0,7.1,5.2,11.7,11.1,11.6h0c4.8,0,9.1-3,10.5-7.9h-5c-1.1,2.2-3.2,3.5-5.5,3.5c-3.1,0-5.8-2.4-6.3-6.1h12.7c0,0,0,0,0,0H247.6z
			 M236.5,113.3L236.5,113.3L236.5,113.3c2.1,0,5,1.2,6,4.5h-12.1C231.5,114.5,234.4,113.3,236.5,113.3"/>
		<path class="st6" d="M257.8,132.2c-5.9,0-9.3-2.8-9.3-7.7v-0.1h4.6l0,0.1c0.2,2.6,1.9,3.9,5.1,3.9c2.7,0,4.3-1.1,4.3-2.8
			c0-1.5-1.1-2-3.3-2.6l-3.3-0.8c-2.4-0.6-4-1.3-5.1-2.2c-1.2-1-1.7-2.3-1.7-4c0-2,0.8-3.7,2.2-4.9c1.5-1.2,3.7-1.9,6.3-1.9
			c2.7,0,5,0.7,6.5,1.9c1.6,1.2,2.4,3,2.4,5.1v0H262l0,0c-0.1-2.1-1.7-3.2-4.5-3.2c-2.2,0-3.6,0.9-3.6,2.3c0,1.6,1.4,2.2,3.6,2.7
			l2.8,0.6c4.5,1,7,2.4,7,6.4c0,2.2-0.8,4-2.5,5.3C263.1,131.5,260.7,132.2,257.8,132.2"/>
		<rect x="219.2" y="141" class="st6" width="1.7" height="1.7"/>
		<path class="st6" d="M229.1,140.4c-0.6,1.6-1.9,2.5-3.5,2.5c-1.8,0-3.8-1.4-3.8-3.8c0-2.1,1.8-3.7,3.8-3.7c0.9,0,2.8,0.4,3.6,2.6
			h-1.9c-0.2-0.4-0.6-1-1.6-1c-1,0-2.1,0.8-2.1,2.2c0,1.2,0.9,2.2,2.1,2.2c0.6,0,1.1-0.3,1.6-1H229.1z"/>
		<path class="st6" d="M235.4,139.2c0-1.3-1-2.2-2.1-2.2c-0.9,0-2.1,0.7-2.1,2.2c0,1.3,1,2.2,2.1,2.2
			C234.6,141.4,235.4,140.3,235.4,139.2 M229.5,139.2c0-2.1,1.7-3.8,3.8-3.8c2,0,3.8,1.6,3.8,3.7c0,2.3-1.8,3.8-3.8,3.8
			C231.2,142.9,229.5,141.2,229.5,139.2"/>
		<path class="st6" d="M237.7,135.7h1.6v0.6h0c0.1-0.2,0.6-0.8,1.9-0.8c0.4,0,1.4,0.1,2,1.1c0.7-1,1.8-1.1,2.3-1.1
			c1.4,0,2.1,0.7,2.3,1.1c0.3,0.4,0.5,1,0.5,2.1v4.1h-1.7v-3.9c0-0.4,0-1.8-1.3-1.8c-0.5,0-0.9,0.3-1.2,0.7c-0.2,0.4-0.3,1-0.3,1.4
			v3.6h-1.7v-3.9c0-1-0.4-1.8-1.4-1.8c-1.4,0-1.4,1.5-1.4,2.2v3.5h-1.7V135.7z"/>
		<rect x="249.5" y="141" class="st6" width="1.7" height="1.7"/>
		<path class="st6" d="M255.7,137c-1.4,0-2.1,1.2-2.1,2.2c0,1.2,0.9,2.2,2.1,2.2c1.2,0,2.1-0.9,2.1-2.2
			C257.7,137.7,256.7,137,255.7,137 M259.3,142.7h-1.6v-0.9c-0.5,0.6-1.6,1.1-2.5,1.1c-1.8,0-3.4-1.4-3.4-3.8c0-2.1,1.6-3.7,3.5-3.7
			c1.4,0,2.3,1,2.3,1.1h0v-0.9h1.6V142.7z"/>
		<path class="st6" d="M266.6,135.7v7H265V142h0c-0.3,0.4-0.7,0.9-1.8,0.9c-1.3,0-2-0.6-2.4-1.1c-0.5-0.7-0.5-1.9-0.5-2.5v-3.7h1.7
			v3.6c0,0.6,0,2.1,1.5,2.1c1.1,0,1.4-1,1.4-2.1v-3.6H266.6z"/>
	</g>
</g>
</svg>
